{"title":"I, Me Aur Main 2013 720p DVDRip x264 6Ch ESUBs (ExD) - Hindi","uid":8391670,"size":1424223181,"categoryP":"video","categoryS":"hd___movies","magnet":"?xt=urn:btih:26eaf595f28c2ecaebb29b0e6c207064cb59f853&amp;dn=I%2C+Me+Aur+Main+2013+720p+DVDRip+x264+6Ch+ESUBs+%28ExD%29+-+Hindi&amp;tr=udp%3A%2F%2Ftracker.openbittorrent.com%3A80&amp;tr=udp%3A%2F%2Fopen.demonii.com%3A1337&amp;tr=udp%3A%2F%2Ftracker.coppersurfer.tk%3A6969&amp;tr=udp%3A%2F%2Fexodus.desync.com%3A6969","seeders":1,"leechers":0,"uploader":"SJonam","files":4,"time":1366447271,"description":" &lt;a href=&quot;http://desibbrg.org/images/66952052392581364616.gif&quot; rel=&quot;nofollow&quot; target=&quot;_NEW&quot;&gt;http://desibbrg.org/images/66952052392581364616.gif&lt;/a&gt; &lt;a href=&quot;\nhttp://desibbrg.org/images/25178505928302413788.png&quot; rel=&quot;nofollow&quot; target=&quot;_NEW&quot;&gt;\nhttp://desibbrg.org/images/25178505928302413788.png&lt;/a&gt; &lt;a href=&quot;\nhttp://desibbrg.org/images/42510196344161579570.png&quot; rel=&quot;nofollow&quot; target=&quot;_NEW&quot;&gt;\nhttp://desibbrg.org/images/42510196344161579570.png&lt;/a&gt; &lt;a href=&quot;\nhttp://desibbrg.org/images/38417386930793446777.png&quot; rel=&quot;nofollow&quot; target=&quot;_NEW&quot;&gt;\nhttp://desibbrg.org/images/38417386930793446777.png&lt;/a&gt; &lt;a href=&quot;\nhttp://desibbrg.org/images/58925088471506763598.png&quot; rel=&quot;nofollow&quot; target=&quot;_NEW&quot;&gt;\nhttp://desibbrg.org/images/58925088471506763598.png&lt;/a&gt;\n\nMedia Info - \nVideo\nID : 1\nFormat : AVC\nFormat/Info : Advanced Video Codec\nFormat profile : &lt;a class=&quot;__cf_email__&quot; href=&quot;/cdn-cgi/l/email-protection&quot; data-cfemail=&quot;b2fadbd5daf2fe819c83&quot;&gt;[email&amp;#160;protected]&lt;/a&gt;&lt;script cf-hash='f9e31' type=&quot;text/javascript&quot;&gt;\n/* &lt;![CDATA[ */!function(){try{var t=&quot;currentScript&quot;in document?document.currentScript:function(){for(var t=document.getElementsByTagName(&quot;script&quot;),e=t.length;e--;)if(t[e].getAttribute(&quot;cf-hash&quot;))return t[e]}();if(t&amp;&amp;t.previousSibling){var e,r,n,i,c=t.previousSibling,a=c.getAttribute(&quot;data-cfemail&quot;);if(a){for(e=&quot;&quot;,r=parseInt(a.substr(0,2),16),n=2;a.length-n;n+=2)i=parseInt(a.substr(n,2),16)^r,e+=String.fromCharCode(i);e=document.createTextNode(e),c.parentNode.replaceChild(e,c)}}}catch(u){}}();/* ]]&gt; */&lt;/script&gt;\nFormat settings, CABAC : Yes\nFormat settings, ReFrames : 4 frames\nCodec ID : V_MPEG4/ISO/AVC\nDuration : 1h 45mn\nBit rate : 1 344 Kbps\nWidth : 1 280 pixels\nHeight : 544 pixels\nDisplay aspect ratio : 2.35:1\nFrame rate mode : Constant\nFrame rate : 23.976 fps\nColor space : YUV\nChroma subsampling : 4:2:0\nBit depth : 8 bits\nScan type : Progressive\nBits/(Pixel*Frame) : 0.081\nStream size : 982 MiB (73%)\nWriting library : x264 core 130 r2273 b3065e6\nLanguage : Hindi\nDefault : Yes\nForced : No\n\nAudio\nID : 2\nFormat : AC-3\nFormat/Info : Audio Coding 3\nMode extension : CM (complete main)\nFormat settings, Endianness : Big\nCodec ID : A_AC3\nDuration : 1h 45mn\nBit rate mode : Constant\nBit rate : 448 Kbps\nChannel(s) : 6 channels\nChannel positions : Front: L C R, Side: L R, LFE\nSampling rate : 48.0 KHz\nBit depth : 16 bits\nCompression mode : Lossy\nDelay relative to video : 500ms\nStream size : 337 MiB (25%)\nLanguage : Hindi\nDefault : Yes\nForced : No\n\nRipper : K@rtik\n\nSeeding 24x7... Extreme Seeding...\n\n\nEnjoy!\n","torrent":{"xt":"urn:btih:26eaf595f28c2ecaebb29b0e6c207064cb59f853","amp;dn":"I%2C+Me+Aur+Main+2013+720p+DVDRip+x264+6Ch+ESUBs+%28ExD%29+-+Hindi","amp;tr":["udp%3A%2F%2Ftracker.openbittorrent.com%3A80","udp%3A%2F%2Fopen.demonii.com%3A1337","udp%3A%2F%2Ftracker.coppersurfer.tk%3A6969","udp%3A%2F%2Fexodus.desync.com%3A6969"],"infoHash":"26eaf595f28c2ecaebb29b0e6c207064cb59f853","infoHashBuffer":{"type":"Buffer","data":[38,234,245,149,242,140,46,202,235,178,155,14,108,32,112,100,203,89,248,83]},"announce":[],"urlList":[]}}